<?xml version="1.0" encoding="utf-8"?>
<!-- Generator: Adobe Illustrator 27.1.1, SVG Export Plug-In . SVG Version: 6.00 Build 0)  -->
<svg version="1.1" id="Capa_1" xmlns="http://www.w3.org/2000/svg" xmlns:xlink="http://www.w3.org/1999/xlink" x="0px" y="0px"
	 viewBox="0 0 1200 1000" style="enable-background:new 0 0 1200 1000;" xml:space="preserve">
<style type="text/css">
	.st0{fill:#FFFFFF;}
	.st1{fill:#076081;}
	.st2{opacity:0.3;}
	.st3{fill:#80B9D3;}
	.st4{fill:#12110B;}
	.st5{fill:#575756;}
	.st6{fill:#1D1D1B;}
	.st7{opacity:0.2;}
</style>
<path class="st0" d="M1165.5,738.9v-32.6c0.6-19.8-5.8-38-18.5-53.1c29.7-52.4,41.6-106,35.5-159.7c-7.8-111.6-94-211.4-236.6-273.8
	c-66.2-29-141.5-48.8-223.8-59c-76.4-9.5-155.5-10.2-235.1-2.3c-0.6-0.6-1.3-1.1-1.9-1.6L304.7,16.3c-6.4-5-14.4-7.2-22.3-6.3
	c-5.8-0.6-11.8,0.4-17.1,3.1l-80.4,40.4c-9.9,5-16.3,14.9-16.8,26l-14.7,345.1L40.2,455.9c-13.1,3.6-22,15.1-22.4,28.7l-5.3,223.3
	l-0.7,78.5c0,0,0,23.1,9.2,35.5c0.6,0.8,1.3,1.4,2.2,2c1.3,1.6,2.9,3.1,4.6,4.5c26,20.4,56.2,38.9,89.8,55.1
	c98.4,47.3,220.1,72.3,351.7,72.3c27.8,0,56.1-1.1,84.2-3.4c159.6-12.8,311.6-60.8,427.8-135c5-3.2,8.9-7.8,11.3-13h161
	c16.8,0,30.5-13.7,30.5-30.5v-7C1184,754.4,1176.4,743.6,1165.5,738.9z"/>
<g>
	<g>
		<g>
			<path class="st1" d="M808.9,791.8c-0.9,0.4-1.7,0.8-2.6,1.2c-0.7,0.3-1.4,0.6-2,0.9c-2.5,1.1-5,2.3-7.5,3.4
				c-0.1,0.1-0.3,0.1-0.4,0.2c-2.6,1.2-5.3,2.3-7.9,3.5c-0.7,0.3-1.3,0.6-2,0.9c-2.3,1-4.5,1.9-6.8,2.9c-0.5,0.2-0.9,0.4-1.4,0.6
				c-2.7,1.1-5.4,2.2-8.1,3.3c-0.6,0.2-1.2,0.5-1.7,0.7c-2.3,0.9-4.5,1.8-6.8,2.7c-0.6,0.2-1.2,0.5-1.8,0.7
				c-2.7,1.1-5.5,2.1-8.3,3.2c-0.4,0.1-0.8,0.3-1.1,0.4c-2.4,0.9-4.9,1.8-7.3,2.7c-0.7,0.2-1.3,0.5-2,0.7c-5.6,2-11.3,4-16.9,6
				c-0.7,0.2-1.3,0.5-2,0.7c-2.6,0.9-5.1,1.7-7.7,2.6c-0.3,0.1-0.6,0.2-1,0.3c-2.9,0.9-5.8,1.9-8.7,2.8c-0.6,0.2-1.2,0.4-1.8,0.6
				c-2.5,0.8-5,1.6-7.4,2.3c-0.5,0.2-1.1,0.3-1.6,0.5c-2.9,0.9-5.9,1.8-8.8,2.6c-0.4,0.1-0.8,0.2-1.2,0.4c-2.6,0.8-5.2,1.5-7.8,2.2
				c-0.6,0.2-1.2,0.3-1.8,0.5c-5.9,1.7-11.9,3.3-17.9,4.9c-0.6,0.2-1.3,0.3-1.9,0.5c-2.9,0.8-5.8,1.5-8.8,2.2c-0.1,0-0.1,0-0.2,0.1
				c-3.1,0.8-6.1,1.5-9.2,2.2c-0.6,0.1-1.1,0.3-1.7,0.4c-2.7,0.6-5.4,1.3-8.1,1.9c-0.4,0.1-0.8,0.2-1.2,0.3
				c-3.1,0.7-6.2,1.4-9.3,2.1c-0.4,0.1-0.8,0.2-1.2,0.3c-2.8,0.6-5.5,1.2-8.3,1.8c-0.5,0.1-1,0.2-1.6,0.3c-3.1,0.6-6.3,1.3-9.5,1.9
				c-0.1,0-0.1,0-0.2,0c-3,0.6-6.1,1.2-9.1,1.8c-0.6,0.1-1.1,0.2-1.7,0.3c-6.3,1.2-12.6,2.3-18.9,3.3c-0.5,0.1-1,0.2-1.5,0.3
				c-3,0.5-5.9,1-8.9,1.4c-0.2,0-0.4,0.1-0.6,0.1c-3.2,0.5-6.5,1-9.7,1.5c-0.4,0.1-0.8,0.1-1.1,0.2c-2.9,0.4-5.8,0.8-8.7,1.2
				c-0.4,0.1-0.8,0.1-1.2,0.2c-3.3,0.4-6.5,0.9-9.8,1.3c-0.1,0-0.2,0-0.3,0c-3.1,0.4-6.2,0.8-9.3,1.1c-0.5,0.1-1,0.1-1.4,0.2
				c-6.4,0.7-12.9,1.4-19.3,2.1c-0.5,0-0.9,0.1-1.4,0.1c-6.5,0.6-13,1.2-19.5,1.7c-0.4,0-0.7,0.1-1.1,0.1c-3,0.2-6.1,0.5-9.1,0.7
				c-0.3,0-0.5,0-0.8,0.1c-3.3,0.2-6.6,0.4-9.9,0.6c-0.1,0-0.3,0-0.4,0c-3.1,0.2-6.2,0.3-9.3,0.5c-0.4,0-0.8,0-1.2,0.1
				c-6.5,0.3-13,0.6-19.5,0.8c-0.4,0-0.8,0-1.2,0c-6.5,0.2-13,0.3-19.5,0.4c-0.3,0-0.7,0-1,0c-3.1,0-6.2,0-9.3,0c-0.1,0-0.3,0-0.4,0
				c-3.3,0-6.6,0-9.9-0.1c-0.2,0-0.4,0-0.6,0c-3.1,0-6.2-0.1-9.2-0.2c-0.3,0-0.6,0-1,0c-6.5-0.1-12.9-0.3-19.3-0.6
				c-0.4,0-0.8,0-1.2,0c-6.4-0.3-12.8-0.6-19.2-1c-0.4,0-0.7,0-1.1-0.1c-3.1-0.2-6.3-0.4-9.4-0.6c-84.2-6.2-164.1-23.7-232.7-53.2
				c-14.6-6.3-28.2-12.9-40.9-19.9c23.9,18.7,51.9,36.1,84.2,51.6c238.7,114.7,603.8,82.7,834-64.3H808.9z"/>
			<path class="st1" d="M832.4,306.6c179.4,60.8,252.6,180.1,194.5,299.4h7.7v55.1c1-1.1,2-2.2,3.1-3.3c13.3-13.5,29.7-20,48.6-19.4
				c10.5,0.4,20.2,2.9,28.9,7.5c30.3-50,41.9-101,36.2-149.7c-6.5-97.5-82.4-189.1-218.4-248.6c-129.7-56.8-293.8-75.1-452-58
				l1.6,81.5C606.1,260.9,729.9,271.8,832.4,306.6z"/>
		</g>
		<g>
			<g class="st2">
				<path class="st0" d="M1133.9,498.6l-0.1-0.8c-6.3-93.5-82.1-178.7-207.9-233.8c-93.6-40.9-208-62.6-330.8-62.6
					c-3.2,0-6.4,0-9.7,0.1c119.3,1,230.4,22.6,321.6,62.5c125.9,55.1,201.7,140.3,207.9,233.8l0.1,0.8
					c9.4,80-33.5,163.8-120.6,236.1C865.5,841.6,666.3,906.1,459.8,908.1c3,0,6,0,9,0c209.9,0,413.5-64.8,544.5-173.4
					C1100.4,662.5,1143.2,578.6,1133.9,498.6z"/>
			</g>
		</g>
		<g>
			<g>
				<path class="st3" d="M304.2,343.4h95.9v61h32.1v130.7c0,7.2,2.3,12.5,7.7,17.8c5.6,5.4,11,7.8,18.1,7.8c5.8,0,10.5-1.6,15-5.1
					l-7.2-374.6L276,41.5l-4.3,306.9C281.6,345.1,292.5,343.4,304.2,343.4z"/>
			</g>
		</g>
		<g>
			<polygon class="st4" points="172,690.4 198,80.8 278.4,40.4 278.4,52.7 203.5,80.9 180.5,647.7 			"/>
			<polygon class="st4" points="285.2,40.4 465.7,180.9 465.7,186.9 285.2,52.5 			"/>
			<polygon class="st4" points="206.1,149.7 275.6,115.1 398.6,194.9 275.6,104.2 206.1,138.9 			"/>
			<polygon class="st4" points="206.1,200.7 275.6,168.6 391.5,243.8 275.6,157.6 206.1,189.6 			"/>
			<polygon class="st4" points="206.1,245.7 275.6,217.6 375.5,274 275.6,209.8 206.1,236.4 			"/>
			<polygon class="st4" points="206.1,290.7 275.6,266.3 366.3,310.5 275.6,258.6 206.1,281.4 			"/>
			<polygon class="st4" points="42.3,708.6 47.6,485.3 178.6,449.1 178.6,458.1 54.3,490 49,687.4 			"/>
		</g>
		<g>
			<path class="st5" d="M243.4,833.8v-42.2h13.7c1.8,0,3.5,0.3,5.1,0.9c1.6,0.6,3,1.4,4.2,2.5c1.2,1.1,2.1,2.4,2.8,3.9
				c0.7,1.5,1,3.2,1,5c0,1.8-0.3,3.5-1,5c-0.7,1.5-1.6,2.8-2.8,3.9c-1.2,1.1-2.6,1.9-4.2,2.5c-1.6,0.6-3.3,0.9-5.1,0.9h-9.9v17.6
				H243.4z M257.2,812.6c1.3,0,2.5-0.2,3.6-0.7c1.1-0.5,2.1-1.1,2.9-1.9c0.8-0.8,1.4-1.7,1.9-2.8c0.5-1.1,0.7-2.2,0.7-3.4
				c0-1.2-0.2-2.4-0.7-3.4c-0.5-1.1-1.1-2-1.9-2.8c-0.8-0.8-1.8-1.4-2.9-1.8c-1.1-0.5-2.3-0.7-3.6-0.7h-10.1v17.4H257.2z"/>
			<path class="st5" d="M276.2,791.6h14c1.8,0,3.4,0.3,5,0.9c1.6,0.6,2.9,1.5,4.1,2.5c1.2,1.1,2.1,2.4,2.7,3.9c0.7,1.5,1,3.2,1,5
				c0,1.5-0.3,2.9-0.8,4.2c-0.5,1.3-1.3,2.5-2.2,3.5c-0.9,1-2,1.9-3.3,2.6c-1.3,0.7-2.6,1.2-4.1,1.6l-0.1,0.2l12,17.6v0.2h-4.3
				l-11.9-17.6H280v17.6h-3.8V791.6z M289.6,812.7c1.3,0,2.5-0.2,3.6-0.6c1.1-0.4,2.2-1,3-1.8c0.9-0.8,1.6-1.7,2.1-2.8
				c0.5-1.1,0.8-2.3,0.8-3.6c0-1.2-0.2-2.4-0.7-3.4c-0.5-1.1-1.1-2-1.9-2.8c-0.8-0.8-1.8-1.4-2.9-1.8c-1.1-0.5-2.3-0.7-3.6-0.7H280
				v17.5H289.6z"/>
			<path class="st5" d="M329.1,834.7c-3.1,0-6-0.6-8.6-1.7c-2.6-1.2-4.9-2.7-6.8-4.7c-1.9-2-3.4-4.3-4.5-7c-1.1-2.7-1.6-5.5-1.6-8.5
				c0-3,0.5-5.9,1.6-8.5c1.1-2.7,2.6-5,4.5-7c1.9-2,4.2-3.6,6.8-4.7c2.6-1.2,5.5-1.7,8.6-1.7c3.1,0,5.9,0.6,8.5,1.7
				c2.6,1.2,4.9,2.7,6.8,4.7c1.9,2,3.4,4.3,4.5,7c1.1,2.7,1.6,5.5,1.6,8.5c0,3-0.5,5.9-1.6,8.5c-1.1,2.7-2.6,5-4.5,7
				c-1.9,2-4.2,3.6-6.8,4.7C335,834.1,332.1,834.7,329.1,834.7z M329.1,831.1c2.4,0,4.7-0.5,6.8-1.4c2.2-0.9,4-2.2,5.6-3.8
				c1.6-1.6,2.9-3.6,3.8-5.8c0.9-2.3,1.4-4.7,1.4-7.5s-0.5-5.2-1.4-7.5c-0.9-2.3-2.2-4.2-3.8-5.8c-1.6-1.6-3.5-2.9-5.6-3.8
				c-2.2-0.9-4.4-1.4-6.8-1.4c-2.4,0-4.7,0.5-6.9,1.4c-2.1,0.9-4,2.2-5.6,3.8c-1.6,1.6-2.9,3.6-3.8,5.8c-0.9,2.3-1.4,4.7-1.4,7.5
				s0.5,5.2,1.4,7.5c0.9,2.3,2.2,4.2,3.8,5.8c1.6,1.6,3.5,2.9,5.6,3.8C324.3,830.7,326.6,831.1,329.1,831.1z"/>
			<path class="st5" d="M357.4,833.8v-42.2h13.7c1.8,0,3.5,0.3,5.1,0.9c1.6,0.6,3,1.4,4.2,2.5c1.2,1.1,2.1,2.4,2.8,3.9
				c0.7,1.5,1,3.2,1,5c0,1.8-0.3,3.5-1,5c-0.7,1.5-1.6,2.8-2.8,3.9c-1.2,1.1-2.6,1.9-4.2,2.5c-1.6,0.6-3.3,0.9-5.1,0.9h-9.9v17.6
				H357.4z M371.2,812.6c1.3,0,2.5-0.2,3.6-0.7c1.1-0.5,2.1-1.1,2.9-1.9c0.8-0.8,1.4-1.7,1.9-2.8c0.5-1.1,0.7-2.2,0.7-3.4
				c0-1.2-0.2-2.4-0.7-3.4c-0.5-1.1-1.1-2-1.9-2.8c-0.8-0.8-1.8-1.4-2.9-1.8c-1.1-0.5-2.3-0.7-3.6-0.7h-10.1v17.4H371.2z"/>
			<path class="st5" d="M390.2,791.6h3.8v42.2h-3.8V791.6z"/>
			<path class="st5" d="M406.8,795.2v15.7H425v3.5h-18.1v15.7h20v3.6H403v-42.2h23.8v3.6H406.8z"/>
			<path class="st5" d="M434.7,791.6h12.3c3.3,0,6.3,0.5,8.9,1.6c2.6,1,4.9,2.5,6.7,4.3c1.8,1.8,3.2,4.1,4.2,6.7
				c1,2.6,1.4,5.4,1.4,8.5c0,3.1-0.5,6-1.4,8.5c-1,2.6-2.4,4.8-4.2,6.7c-1.8,1.8-4.1,3.3-6.7,4.3c-2.6,1-5.6,1.6-8.9,1.6h-12.3
				V791.6z M446.9,830.2c2.6,0,5-0.4,7.2-1.2c2.1-0.8,4-1.9,5.5-3.4c1.5-1.5,2.7-3.3,3.5-5.5c0.8-2.2,1.2-4.6,1.2-7.4
				c0-2.7-0.4-5.2-1.2-7.4s-2-4-3.5-5.5c-1.5-1.5-3.3-2.6-5.5-3.4c-2.1-0.8-4.5-1.2-7.2-1.2h-8.5v35H446.9z"/>
			<path class="st5" d="M485.8,791.6h4.4l16.3,42.2h-4.1l-4.6-12.2h-19.6l-4.6,12.2h-4.1L485.8,791.6z M496.4,818.1l-8.3-21.9h-0.2
				l-8.3,21.9H496.4z"/>
			<path class="st5" d="M511.7,791.6H524c3.3,0,6.3,0.5,8.9,1.6c2.6,1,4.9,2.5,6.7,4.3c1.8,1.8,3.2,4.1,4.2,6.7
				c1,2.6,1.4,5.4,1.4,8.5c0,3.1-0.5,6-1.4,8.5c-1,2.6-2.4,4.8-4.2,6.7c-1.8,1.8-4.1,3.3-6.7,4.3c-2.6,1-5.6,1.6-8.9,1.6h-12.3
				V791.6z M524,830.2c2.6,0,5-0.4,7.2-1.2c2.1-0.8,4-1.9,5.5-3.4c1.5-1.5,2.7-3.3,3.5-5.5c0.8-2.2,1.2-4.6,1.2-7.4
				c0-2.7-0.4-5.2-1.2-7.4s-2-4-3.5-5.5c-1.5-1.5-3.3-2.6-5.5-3.4c-2.1-0.8-4.5-1.2-7.2-1.2h-8.5v35H524z"/>
			<path class="st5" d="M565.9,791.6h14c1.8,0,3.4,0.3,5,0.9c1.6,0.6,2.9,1.5,4.1,2.5c1.2,1.1,2.1,2.4,2.7,3.9c0.7,1.5,1,3.2,1,5
				c0,1.5-0.3,2.9-0.8,4.2c-0.5,1.3-1.3,2.5-2.2,3.5c-0.9,1-2,1.9-3.3,2.6c-1.3,0.7-2.6,1.2-4.1,1.6l-0.1,0.2l12,17.6v0.2H590
				l-11.9-17.6h-8.4v17.6h-3.8V791.6z M579.4,812.7c1.3,0,2.5-0.2,3.6-0.6c1.1-0.4,2.2-1,3-1.8c0.9-0.8,1.6-1.7,2.1-2.8
				c0.5-1.1,0.8-2.3,0.8-3.6c0-1.2-0.2-2.4-0.7-3.4c-0.5-1.1-1.1-2-1.9-2.8c-0.8-0.8-1.8-1.4-2.9-1.8c-1.1-0.5-2.3-0.7-3.6-0.7
				h-10.1v17.5H579.4z"/>
			<path class="st5" d="M612,791.6h4.4l16.3,42.2h-4.1l-4.6-12.2h-19.6l-4.6,12.2h-4.1L612,791.6z M622.6,818.1l-8.3-21.9h-0.2
				l-8.3,21.9H622.6z"/>
			<path class="st5" d="M637.9,791.6h3.8v42.2h-3.8V791.6z M638.3,788.1l3.1-7.3h4.3l-3.9,7.3H638.3z"/>
			<path class="st5" d="M648.3,829.7l23.6-34.5h-22.6v-3.6h26.9v4.1l-23.6,34.5h23.8v3.6h-28V829.7z"/>
		</g>
		<g>
			<path class="st6" d="M256.6,755.4h-13.4V621.8h13.4V755.4z"/>
			<path class="st6" d="M358.8,755.4h-13.4v-57.8c0-8.3-3.1-15.4-9.2-21.5c-6.1-6.1-13-9-21.2-9s-15.4,3-21.5,9
				c-6.1,6.1-9,13.2-9,21.5v57.8h-13.4V699c0-12.8,4.2-23.4,12.5-31.9c8.3-8.5,18.7-12.8,31.4-12.8c12.5,0,22.9,4.3,31.2,12.8
				c8.3,8.5,12.5,19.1,12.5,31.9V755.4z"/>
			<path class="st6" d="M515.1,755.4h-13.7v-60.7c0-7.6-2.3-14.2-6.6-19.6c-4.3-5.4-10.2-8.2-17.4-8.2c-7.3,0-13.5,2.4-18.9,7.1
				c-5.2,4.7-7.8,10.6-7.8,17.7v63.7h-13.9v-63.7c0-7.1-2.6-13-8-17.7c-5.2-4.7-11.5-7.1-18.7-7.1c-7.1,0-12.8,2.8-17.2,8.2
				c-4.3,5.4-6.4,11.8-6.4,19.6v60.7h-13.7v-59.2c0-12.3,3.5-22.4,10.6-29.9c6.6-7.1,15.3-11.1,26-12c14.4-1.2,25.9,5,34.4,18.4
				c8.5-13.4,20-19.6,34.4-18.4c10.8,0.9,19.4,4.9,26.2,12c7.1,7.5,10.8,17.5,10.8,29.9V755.4z"/>
			<path class="st6" d="M615.4,742.9c-10.2,10.2-22.6,15.3-36.8,14.8c-13.7-0.3-25.5-5.6-35.1-15.6s-14.2-22-14.2-35.9
				c0-14.4,5.2-26.9,15.4-37.1c10.2-10.4,22.6-15.4,36.8-14.9c13.7,0.5,25.5,5.7,35.1,16c9.5,10.1,14.4,22,14.4,35.9
				C631,720.2,625.8,732.5,615.4,742.9z M578.7,744.7c10.9,0.5,20.1-3.1,27.8-11.3c7.8-8.2,11.5-17.5,11.3-28.5
				c-0.3-10.4-4.2-19.3-11.3-26.7s-15.6-11.1-25.7-11.1c-10.6-0.2-19.4,3.6-26.9,11.1s-11.1,16.3-11.3,26.9
				c-0.2,10.4,3.1,19.6,10.2,27.4C560,740.3,568.5,744.3,578.7,744.7z"/>
			<path class="st6" d="M644,705.1v-83.5h13v50c9.7-11.3,21.9-17,36.4-17.5c14.2-0.5,26.6,4.3,36.8,14.8
				c10.4,10.4,15.6,22.7,15.6,37.1c0,13.9-4.9,25.9-14.4,35.9s-21.3,15.3-35.1,15.8c-14.2,0.5-26.6-4.5-37.1-14.9
				c-10.6-10.4-15.6-22.7-15.3-37V705.1z M722.1,732.4c7.1-7.8,10.6-16.8,10.4-27.4c-0.2-10.4-4-19.3-11.5-26.7
				c-7.3-7.5-16.1-11.3-26.7-11.3c-10.1,0-18.7,3.6-25.9,11.1c-7.1,7.5-10.9,16.3-11.1,26.7c-0.3,10.9,3.3,20.5,11.1,28.6
				c7.8,8,17,11.8,27.8,11.3C706.5,744.2,715,740.2,722.1,732.4z"/>
			<path class="st6" d="M770.4,644.7h-13v-23.1h13V644.7z M770.4,755.4h-13v-98.9h13V755.4z"/>
			<path class="st6" d="M798.1,755.4h-13.2V621.6h13.2V755.4z"/>
			<path class="st6" d="M826.1,644.7h-13v-23.1h13V644.7z M826.1,755.4h-13v-98.9h13V755.4z"/>
			<path class="st6" d="M942.2,755.4h-12.8V740c-10.8,12.3-24,18.2-39.6,17.7c-13.7-0.5-25.3-5.7-34.9-15.8
				c-9.5-10.1-14.4-22-14.4-35.9c0-14.4,5.2-26.9,15.4-37.1c10.2-10.4,22.6-15.3,37-14.8c13.9,0.5,25.7,5.7,35.4,16
				c9.7,10.1,14.4,22,13.9,35.8v0.7V755.4z M853.8,704.9c-0.2,10.4,3.1,19.6,10.2,27.4c7.1,7.8,15.8,11.8,25.9,12.3
				c10.9,0.5,20.1-3.3,27.8-11.3c7.8-8.2,11.5-17.7,11.3-28.6c-0.2-10.4-4-19.3-11.1-26.7c-7.1-7.5-15.8-11.1-25.9-11.1
				c-10.6,0-19.4,3.6-26.9,11.1C857.6,685.5,854,694.3,853.8,704.9z"/>
			<path class="st6" d="M968.9,755.4H955v-98.9h12.3v14.1c2.8-5.4,6.9-9.4,12.3-12.3c5-2.6,10.1-3.8,15.3-3.6v13.2
				c-6.1,0.2-11.1,1.9-14.9,5c-3.8,3.1-6.4,5.9-7.8,8.2c-2.3,3.8-3.3,8.9-3.3,15.3V755.4z"/>
			<path class="st6" d="M1018.2,644.7h-13v-23.1h13V644.7z M1018.2,755.4h-13v-98.9h13V755.4z"/>
			<path class="st6" d="M1134.3,755.4h-12.8V740c-10.8,12.3-24,18.2-39.6,17.7c-13.7-0.5-25.3-5.7-34.9-15.8
				c-9.5-10.1-14.4-22-14.4-35.9c0-14.4,5.2-26.9,15.4-37.1c10.2-10.4,22.6-15.3,37-14.8c13.9,0.5,25.7,5.7,35.4,16
				c9.7,10.1,14.4,22,13.9,35.8v0.7V755.4z M1046,704.9c-0.2,10.4,3.1,19.6,10.2,27.4c7.1,7.8,15.8,11.8,25.9,12.3
				c10.9,0.5,20.1-3.3,27.8-11.3c7.8-8.2,11.5-17.7,11.3-28.6c-0.2-10.4-4-19.3-11.1-26.7c-7.1-7.5-15.8-11.1-25.9-11.1
				c-10.6,0-19.4,3.6-26.9,11.1C1049.8,685.5,1046.1,694.3,1046,704.9z"/>
		</g>
		<rect x="224.8" y="767" class="st1" width="928" height="7"/>
		<g>
			<path class="st6" d="M371.9,607.2h-67.7c-17.8,0-32.4-5-43.8-15c-11.4-10-17.2-24.3-17.2-42.9V429.5c0-18.6,5.7-32.9,17.2-42.9
				c11.4-10,26-15,43.8-15h67.7v22H304c-12.3,0-20.9,2.5-25.8,7.4c-7.8,8.2-11.7,16.3-11.7,24.5v50.9h79V499h-79v54.3
				c0,8.1,3.9,16.3,11.7,24.4c4.9,4.9,13.5,7.3,25.8,7.3h67.9V607.2z"/>
			<path class="st6" d="M535.1,532.1c0,22.7-7.3,41.6-21.9,56.7c-14.6,15.1-33,22.7-55.3,22.7c-22.3,0-40.7-7.6-55.3-22.7
				c-14.6-15.1-21.9-34-21.9-56.7v-99.6H404v102.5c0,14.8,5.4,27.4,16.2,37.9c10.8,10.5,23.4,15.8,37.7,15.8
				c14.4,0,27-5.3,37.7-15.8c10.8-10.6,16.2-23.2,16.2-37.9V432.6h23.3V532.1z"/>
			<path class="st6" d="M629.8,452.5c-10.8,0.4-19.6,3.4-26.3,8.9c-6.7,5.5-11.3,10.3-13.8,14.4c-3.9,6.7-5.8,15.7-5.8,27v104.5
				h-24.5V432.6H581v24.8c4.9-9.4,12.2-16.6,21.8-21.8c8.8-4.7,17.8-6.8,27-6.4V452.5z"/>
			<path class="st6" d="M803.2,519.9c0,25.1-9.2,46.8-27.4,65.1c-18.3,18.3-40,27-65.1,26.2c-24.3-0.6-44.9-9.8-61.7-27.6
				c-16.8-17.8-25.3-38.9-25.3-63.4c0-25.5,9.1-47.4,27.3-65.7c18.2-18.3,39.8-27,64.9-26.2c24.3,0.8,44.9,10.1,61.9,28
				C794.7,474.2,803.2,495.4,803.2,519.9z M779.9,518c-0.6-18.5-7.2-34.3-19.8-47.4c-12.6-13.1-27.8-19.7-45.6-19.7
				c-18.6-0.2-34.5,6.3-47.6,19.5c-13.1,13.3-19.8,29.2-19.9,47.9c-0.4,18.5,5.6,34.6,18.1,48.5c12.5,13.8,27.7,21.1,45.7,21.7
				c19.2,1,35.7-5.6,49.3-20C773.7,554.1,780.3,537.3,779.9,518z"/>
		</g>
		<g class="st7">
			<g>
				<path class="st0" d="M251.2,551.5V431.8c0-17.1,5-29.9,15.4-38.9c10.4-9.1,24-13.7,40.3-13.7h59.6v-2.8H304
					c-16.3,0-29.9,4.6-40.3,13.7c-10.3,9-15.3,21.8-15.3,38.9v119.8c0,16.7,4.8,29.2,14.5,38.2C255,578.1,251.2,566.6,251.2,551.5z"
					/>
				<path class="st0" d="M275.6,582.2c0.5,0.5,0.9,1,1.4,1.5l0.1,0.1c6,5.9,15.6,8.9,29.5,8.9h59.8v-2.8h-62.6
					C290.9,589.9,281.7,587.4,275.6,582.2z"/>
				<rect x="263.9" y="481.1" class="st0" width="76.2" height="2.8"/>
			</g>
			<g>
				<path class="st0" d="M419.1,579.1c11.7,11.5,25.7,17.3,41.4,17.3c15.7,0,29.7-5.8,41.4-17.3c11.8-11.5,17.8-25.6,17.8-41.7
					v-97.3h9.9v-2.8h-12.7v97.2c0,16.2-6,30.2-17.8,41.7c-11.7,11.5-25.7,17.3-41.4,17.3c-15.4,0-29.1-5.6-40.7-16.6
					C417.7,577.6,418.4,578.3,419.1,579.1z"/>
				<path class="st0" d="M388.6,534.4v-94.3h9.9v-2.8h-12.7v94.3c0,21.5,6.7,38.8,20.4,53c0.8,0.8,1.6,1.6,2.4,2.4
					C395.2,572.8,388.6,555.6,388.6,534.4z"/>
			</g>
			<g>
				<path class="st0" d="M578.4,481.2l10-19.1c4.5-8.5,10.8-14.9,19.6-19.5c5.4-2.9,10.8-4.7,16.4-5.5V434
					c-6.5,0.5-12.9,2.4-19.2,5.8c-8.7,4.6-15.1,11-19.6,19.5l-7.1,13.7V481.2z"/>
				<polygon class="st0" points="567.2,440.1 575.6,440.1 575.6,437.3 564.4,437.3 564.4,601.4 567.2,601.4 				"/>
			</g>
			<g>
				<path class="st0" d="M763.9,466.6c13.4,14,20.5,31.1,21.1,50.7c0.4,20.7-6.7,38.9-21.3,54.3c-13.7,14.4-30.3,21.8-49.3,21.8l0,0
					c-1.3,0-2.7,0-4-0.1c-17.4-0.6-32.5-7-45.1-19c13.1,13.8,29.3,21.2,47.9,21.8c1.4,0.1,2.7,0.1,4,0.1c0,0,0,0,0,0
					c19,0,35.6-7.3,49.3-21.8c14.5-15.3,21.7-33.6,21.3-54.3c-0.7-19.7-7.8-36.8-21.3-50.9C765.7,468.3,764.8,467.5,763.9,466.6z"/>
				<path class="st0" d="M655.4,582.2c-15.8-16.7-23.8-36.8-23.8-59.8c0-24.3,8.4-44.6,25.7-62c16.5-16.6,35.5-24.7,58-24.7
					c1,0,2,0,3,0.1c21.5,0.7,39.5,8.3,54.9,23c-16-16.6-34.9-25.1-57.7-25.8c-1-0.1-2-0.1-3-0.1c-22.5,0-41.5,8.1-58,24.7
					c-17.3,17.4-25.7,37.7-25.7,62c0,23,8,43.1,23.8,59.8c1.1,1.2,2.2,2.2,3.3,3.3C655.7,582.6,655.6,582.4,655.4,582.2z"/>
			</g>
		</g>
	</g>
</g>
</svg>
